<?xml version="1.0" standalone="no"?>
<!DOCTYPE svg PUBLIC "-//W3C//DTD SVG 20010904//EN"
 "http://www.w3.org/TR/2001/REC-SVG-20010904/DTD/svg10.dtd">
<svg version="1.0" xmlns="http://www.w3.org/2000/svg"
 width="500.000000pt" height="500.000000pt" viewBox="0 0 500.000000 500.000000"
 preserveAspectRatio="xMidYMid meet">

<g transform="translate(0.000000,500.000000) scale(0.100000,-0.100000)"
fill="#000000" stroke="none">
<path d="M1840 3205 c-27 -127 -31 -157 -20 -170 22 -27 39 -17 80 49 50 79
75 94 67 39 -3 -21 -9 -53 -12 -70 -6 -27 -4 -33 9 -33 20 0 52 63 61 120 5
37 3 50 -15 72 -18 24 -24 26 -46 16 -13 -6 -38 -32 -54 -56 -36 -54 -36 -51
-9 55 21 77 21 84 5 108 -9 14 -20 25 -25 25 -4 0 -23 -70 -41 -155z"/>
<path d="M2697 3353 c-4 -3 -7 -26 -7 -50 0 -24 -10 -91 -21 -149 -20 -97 -20
-107 -5 -122 8 -9 18 -13 21 -10 15 14 46 152 52 223 5 71 3 82 -14 98 -11 9
-23 14 -26 10z"/>
<path d="M1645 3333 c-35 -9 -46 -23 -34 -44 11 -21 0 -97 -26 -181 -13 -44
-12 -49 5 -70 l19 -23 15 37 c9 21 16 42 16 47 0 6 30 24 66 41 98 47 129 110
81 166 -18 21 -34 27 -73 30 -27 1 -58 0 -69 -3z m89 -49 c26 -10 19 -50 -15
-78 -45 -38 -55 -34 -50 22 4 57 22 73 65 56z"/>
<path d="M2326 3299 c-3 -8 -6 -27 -8 -43 -2 -24 -9 -31 -36 -38 -24 -7 -32
-13 -28 -24 3 -9 6 -18 6 -20 0 -2 9 -4 21 -4 14 0 19 -5 16 -14 -3 -8 -11
-33 -17 -56 -10 -36 -9 -45 6 -61 23 -26 67 -24 101 5 35 30 25 43 -22 29 -41
-13 -42 -10 -20 64 13 45 18 51 55 62 43 13 46 31 5 31 -18 0 -24 6 -27 26 -4
32 -45 65 -52 43z"/>
<path d="M2105 3207 c-68 -68 -67 -187 1 -187 58 0 106 48 119 122 6 33 3 41
-23 68 -39 38 -56 38 -97 -3z m48 -109 c-25 -44 -43 -47 -43 -8 0 33 12 63 39
94 15 17 16 17 19 -18 2 -23 -4 -49 -15 -68z"/>
<path d="M2508 3220 c-54 -42 -77 -149 -40 -183 45 -41 118 0 142 80 16 54 7
89 -30 108 -37 19 -42 19 -72 -5z m53 -86 c-10 -36 -37 -74 -53 -74 -22 0 -1
89 30 123 14 16 17 16 24 2 5 -8 5 -30 -1 -51z"/>
<path d="M2831 3227 c-31 -15 -71 -90 -71 -131 0 -100 115 -99 156 0 36 87
-16 167 -85 131z m49 -63 c0 -46 -50 -119 -65 -94 -9 15 2 60 25 98 22 36 40
34 40 -4z"/>
<path d="M3060 3233 c-26 -9 -61 -46 -81 -85 -37 -72 -15 -136 43 -124 31 6
35 -4 18 -49 -14 -37 -39 -43 -60 -15 -19 25 -40 20 -40 -10 0 -26 42 -52 77
-48 38 4 65 48 91 149 14 58 19 96 14 123 -7 40 -36 68 -62 59z m30 -83 c0
-19 -10 -36 -31 -54 -35 -30 -49 -33 -49 -10 0 33 55 108 71 98 5 -3 9 -18 9
-34z"/>
<path d="M2368 2844 c-16 -8 -28 -19 -28 -24 0 -6 -7 -10 -15 -10 -8 0 -15 5
-15 10 0 6 -13 10 -28 10 -35 0 -92 -56 -92 -89 0 -20 4 -23 33 -19 17 3 41 9
52 13 18 8 19 7 5 -11 -14 -18 -14 -18 6 -1 22 19 28 48 8 40 -6 -2 -15 0 -19
6 -3 6 -14 11 -23 11 -13 0 -13 -2 4 -16 18 -15 18 -15 -2 -5 -21 10 -34 6
-34 -12 0 -5 7 -6 16 -3 8 3 12 2 9 -4 -8 -13 -32 -13 -40 0 -11 17 47 70 75
69 23 -1 23 -2 -5 -9 -23 -6 -25 -8 -8 -9 12 0 29 -4 39 -8 12 -4 15 -3 10 5
-4 7 -3 12 2 12 5 0 9 -16 10 -35 1 -28 -4 -38 -31 -57 -18 -12 -36 -28 -41
-36 -6 -11 -10 -11 -16 -2 -4 6 -6 -16 -4 -50 3 -54 2 -61 -14 -58 -13 2 -18
17 -23 63 l-6 60 -1 -55 c-2 -56 9 -80 36 -80 8 0 27 -11 44 -25 17 -14 41
-25 56 -24 24 1 23 2 -8 9 -47 11 -70 42 -70 96 0 78 57 106 126 63 19 -11 36
-30 38 -42 11 -51 14 -96 8 -94 -4 1 -18 -6 -32 -16 -31 -21 -9 -22 32 -1 25
13 38 14 74 5 37 -9 50 -9 77 5 17 9 35 22 39 28 11 16 10 198 -1 215 -5 8
-26 17 -47 20 -28 5 -40 12 -42 26 -6 30 -16 36 -61 41 -31 3 -40 1 -35 -9 5
-9 4 -9 -7 1 -16 15 -17 15 -51 -4z m32 -16 c15 -10 26 -10 53 0 46 17 57 15
57 -9 0 -13 -4 -18 -12 -13 -6 4 -8 3 -5 -3 4 -6 -5 -20 -18 -33 -22 -21 -25
-21 -31 -5 -4 9 -3 20 2 24 5 3 10 13 12 21 1 10 -2 9 -13 -4 -8 -11 -15 -23
-15 -28 0 -4 -8 -8 -17 -9 -12 -1 -10 -3 6 -8 25 -7 50 -36 39 -46 -3 -4 -18
1 -32 10 -16 11 -38 16 -56 13 -24 -4 -30 -1 -30 14 0 13 8 18 28 19 23 2 24
2 5 6 -13 2 -23 11 -23 19 0 8 10 15 23 15 17 1 18 2 4 6 -9 2 -15 9 -12 14 8
12 11 11 35 -3z m168 -48 c12 0 22 -4 22 -10 0 -5 -25 -10 -56 -10 -50 0 -55
2 -43 16 7 9 21 13 33 10 12 -3 31 -6 44 -6z m42 -125 c0 -86 -2 -95 -22 -109
-23 -16 -73 -21 -102 -10 -12 5 -13 10 -5 27 7 13 9 41 4 76 -4 31 -7 65 -8
76 0 11 -6 23 -11 28 -6 4 9 6 34 5 l45 -3 6 -100 5 -100 2 97 c2 80 5 99 19
107 10 5 21 7 25 5 5 -3 8 -47 8 -99z m-164 41 c28 -28 34 -41 34 -78 0 -32
-6 -50 -20 -63 -18 -16 -20 -17 -26 -1 -4 9 -4 36 -1 59 2 23 3 36 0 29 -3 -8
-12 -4 -26 14 -11 14 -34 32 -51 39 -21 9 -26 15 -16 18 8 3 22 8 30 10 31 11
43 6 76 -27z"/>
<path d="M2510 2610 c0 -6 7 -10 15 -10 8 0 15 2 15 4 0 2 -7 6 -15 10 -8 3
-15 1 -15 -4z"/>
<path d="M2415 2700 c3 -5 1 -10 -6 -10 -9 0 -9 -3 0 -14 7 -8 21 -14 31 -13
19 1 18 2 -2 24 -22 24 -34 30 -23 13z"/>
<path d="M2441 2584 c0 -11 3 -14 6 -6 3 7 2 16 -1 19 -3 4 -6 -2 -5 -13z"/>
<path d="M1765 2820 c-8 -12 -10 -8 99 -163 56 -79 96 -127 105 -125 8 2 15 6
15 10 1 11 -197 288 -206 288 -4 0 -10 -4 -13 -10z"/>
<path d="M2886 2664 c-98 -127 -113 -155 -83 -154 14 1 210 252 215 275 10 44
-38 0 -132 -121z"/>
<path d="M2290 2650 c-18 -18 -21 -30 -16 -59 6 -41 28 -61 68 -61 37 0 62 38
53 79 -7 34 -20 47 -57 56 -20 5 -32 1 -48 -15z"/>
</g>
</svg>
